<svg width="880" height="200" viewBox="0 0 880 200" fill="none" xmlns="http://www.w3.org/2000/svg">
  <defs>
    <linearGradient id="bolt" x1="30" y1="10" x2="160" y2="190" gradientUnits="userSpaceOnUse">
      <stop offset="0" stop-color="#00E5FF"/>
      <stop offset="0.45" stop-color="#0A84FF"/>
      <stop offset="1" stop-color="#0047E1"/>
    </linearGradient>
    <linearGradient id="bg" x1="70" y1="70" x2="130" y2="150" gradientUnits="userSpaceOnUse">
      <stop offset="0" stop-color="#FFFFFF"/>
      <stop offset="1" stop-color="#9FE3FF"/>
    </linearGradient>
    <linearGradient id="word" x1="210" y1="0" x2="800" y2="0" gradientUnits="userSpaceOnUse">
      <stop offset="0" stop-color="#FFFFFF"/>
      <stop offset="1" stop-color="#7FC4FF"/>
    </linearGradient>
  </defs>

  <rect width="880" height="200" rx="40" fill="#0A0F1E"/>

  <!-- bolt + B icon -->
  <g transform="translate(8,4) scale(0.475)">
    <path d="M292 40 L128 256 L222 256 L160 440 L356 212 L252 212 L306 40 Z" fill="url(#bolt)"/>
    <g transform="translate(242,236) scale(1.18)">
      <path d="M-14 -52 L-14 52 M14 -52 L14 52" stroke="url(#bg)" stroke-width="10" stroke-linecap="round"/>
      <path d="M-24 -40 L12 -40 C34 -40 42 -28 42 -16 C42 -6 36 0 30 2 C38 4 44 12 44 22 C44 36 34 44 14 44 L-24 44 Z"
            fill="none" stroke="url(#bg)" stroke-width="10" stroke-linejoin="round"/>
      <path d="M-24 -2 L30 -2" stroke="url(#bg)" stroke-width="10"/>
    </g>
  </g>

  <!-- wordmark -->
  <text x="212" y="106" font-family="Helvetica, Arial, sans-serif" font-size="62" font-weight="800" letter-spacing="1" fill="url(#word)">LightningASIC</text>
  <text x="216" y="150" font-family="Helvetica, Arial, sans-serif" font-size="20" font-weight="400" letter-spacing="4" fill="#6E7B8B">BITCOIN INFRASTRUCTURE</text>
</svg>
